<svg xmlns="http://www.w3.org/2000/svg" version="1.1" xmlns:xlink="http://www.w3.org/1999/xlink" xmlns:svgjs="http://svgjs.com/svgjs" width="1440" height="560" preserveAspectRatio="none" viewBox="0 0 1440 560"><g mask="url(&quot;#SvgjsMask1051&quot;)" fill="none"><rect width="1440" height="560" x="0" y="0" fill="rgba(201, 233, 246, 1)"></rect><path d="M1464 560L0 560 L0 470.28Q38.18 436.45, 72 474.63Q119.68 402.31, 192 449.98Q234.85 420.83, 264 463.68Q306 433.68, 336 475.68Q358.03 425.71, 408 447.74Q451.62 419.36, 480 462.97Q525.51 436.48, 552 481.99Q571.05 429.04, 624 448.09Q668.7 420.79, 696 465.49Q762 411.49, 816 477.49Q862.82 404.31, 936 451.12Q1001.86 396.98, 1056 462.84Q1097.56 432.39, 1128 473.95Q1149.31 423.25, 1200 444.56Q1267.75 392.31, 1320 460.06Q1364.82 432.88, 1392 477.69Q1413.83 427.51, 1464 449.34z" fill="rgba(32, 106, 143, 1 1)"></path><path d="M1464 560L0 560 L0 500.68Q40.87 469.55, 72 510.41Q98.06 464.47, 144 490.53Q197.93 424.46, 264 478.39Q312.9 455.29, 336 504.19Q389.02 437.21, 456 490.23Q508.52 422.75, 576 475.28Q648.71 427.99, 696 500.69Q724.67 457.37, 768 486.04Q822.16 420.21, 888 474.37Q961.08 427.44, 1008 500.52Q1038.75 459.26, 1080 490.01Q1108.15 446.16, 1152 474.32Q1228.05 430.37, 1272 506.42Q1299.39 461.81, 1344 489.21Q1396.8 422, 1464 474.8z" fill="rgba(145, 192, 248, 1)"></path><path d="M1488 560L0 560 L0 508.81Q35.53 472.34, 72 507.86Q118.83 482.69, 144 529.53Q185.66 499.19, 216 540.85Q241.25 494.1, 288 519.34Q342.09 453.43, 408 507.52Q456.57 484.09, 480 532.65Q533.45 466.1, 600 519.55Q652.03 451.57, 720 503.6Q797.54 461.14, 840 538.68Q868.06 494.74, 912 522.81Q940.75 479.56, 984 508.32Q1033.08 485.39, 1056 534.47Q1109.93 468.4, 1176 522.34Q1206.17 480.51, 1248 510.69Q1319.81 462.5, 1368 534.3Q1422.77 469.07, 1488 523.83z" fill="rgba(81, 118, 165, 1)"></path><path d="M1464 560L0 560 L0 566.59Q45.77 492.37, 120 538.14Q188.63 486.76, 240 555.39Q306.33 501.72, 360 568.05Q403.03 491.08, 480 534.11Q522.49 504.6, 552 547.09Q600.1 523.19, 624 571.3Q639.65 514.95, 696 530.61Q739.43 502.04, 768 545.47Q809.15 514.62, 840 555.77Q865.45 509.22, 912 534.67Q989.09 491.76, 1032 568.85Q1061.63 526.48, 1104 556.11Q1156.45 488.57, 1224 541.02Q1298.55 495.57, 1344 570.11Q1398.71 504.82, 1464 559.53z" fill="rgba(145, 192, 248 1)"></path></g><defs><mask id="SvgjsMask1051"><rect width="1440" height="560" fill="#ffffff"></rect></mask></defs></svg>